<svg xmlns="http://www.w3.org/2000/svg" xmlns:xlink="http://www.w3.org/1999/xlink" id="Livello_1" x="0" y="0" version="1.1" viewBox="0 0 150 150" xml:space="preserve" style="enable-background:new 0 0 150 150"><style type="text/css">.st0{fill:#fff}.st6{fill:#9da1a6}.st7{fill:#767c82}.st8{fill:#3b444d}.st11{fill:#ebeced}.st12{clip-path:url(#SVGID_2_)}</style><metadata><?xpacket begin="﻿" id="W5M0MpCehiHzreSzNTczkc9d"?><?xpacket end="w"?></metadata><switch><g><line x1="104.1" x2="103.7" y1="50.5" y2="51" class="st8"/><circle cx="74" cy="75.5" r="73.5" class="st11"/><g><defs><circle id="SVGID_3_" cx="74" cy="75.5" r="73.5"/></defs><clipPath id="SVGID_2_"><use xlink:href="#SVGID_3_" style="overflow:visible"/></clipPath><g class="st12"><g><path d="M211.3,100.8c0,0-12.5-0.6-18-0.9c-0.4,0-0.7,0-1,0c-2.6-0.1-6.5-0.3-10.9-0.4c-1.1-0.1-2.2-0.1-3.3-0.1 c-1.1,0-2.3-0.1-3.5-0.1c-11.6-0.5-23.8-0.9-23.8-0.9h-39.5l-17.3,5.6c0,0-0.1,0-0.1,0l-10.8-7.1c-0.1-0.1-0.1-0.2,0-0.3 l10.8-7.1c0,0,0.1,0,0.1,0l17.3,5.6H151c0,0,31.4-1,44.8-2c1.6-0.1,16.9-1.2,16.9-1.2l-0.9,5.2L211.3,100.8z" class="st0"/><path d="M212.8,91.7l-0.9,5.2l-0.7,3.9c0,0-12.5-0.6-18-0.9c-0.4,0-0.7,0-1,0c-2.6-0.1-6.5-0.3-10.9-0.4 c-1.1-0.1-2.2-0.1-3.3-0.1c-1.1,0-2.3-0.1-3.5-0.1c-11.6-0.5-23.8-0.9-23.8-0.9h-39.5l-17.3,5.6c0,0-0.1,0-0.1,0l-10.8-7.1 c-0.1-0.1-0.1-0.2,0-0.3l10.8-7.1c0,0,0.1,0,0.1,0l17.3,5.6H151c0,0,31.4-1,44.8-2C197.4,92.8,212.8,91.7,212.8,91.7z" class="st0"/><path d="M212.8,91.7l-0.9,5.2l-0.7,3.9c0,0-12.5-0.6-18-0.9c-0.4,0-0.7,0-1,0c-2.6-0.1-6.5-0.3-10.9-0.4 c-1.1-0.1-2.2-0.1-3.3-0.1c-1.1,0-2.3-0.1-3.5-0.1c-11.6-0.5-23.8-0.9-23.8-0.9h-39.5l-17.3,5.6c0,0-0.1,0-0.1,0l-10.8-7.1 c-0.1-0.1-0.1-0.2,0-0.3l10.8-7.1c0,0,0.1,0,0.1,0l17.3,5.6H151c0,0,31.4-1,44.8-2C197.4,92.8,212.8,91.7,212.8,91.7z" class="st6"/><path d="M211.9,96.9l-0.7,3.9c0,0-12.5-0.6-18-0.9c-0.4,0-0.7,0-1-0.1c-2.6-0.1-6.5-0.3-10.9-0.4 c-1.1-0.1-2.2-0.1-3.3-0.1c-1.1,0-2.3-0.1-3.5-0.1c-11.6-0.5-23.8-0.9-23.8-0.9h-39.5c1.2-0.9,2.6-1.4,4-1.4H211.9z" class="st7"/></g><path d="M57.9,109c-0.4-0.2-0.9,0.1-0.9,0.6l0,7.4c0,2.4,7.8,6.1,17.6,6.1s17.9-3.4,17.9-6.1l0-7.4 c0-0.5-0.5-0.8-0.9-0.6c-3.9,2.3-10.5,3.4-16.8,3.4C68.5,112.5,61.9,111.3,57.9,109z" class="st8"/><path d="M82.1,86.8c-2.2,0.3-4.6,0.5-7.2,0.5c-2.9,0-5.6-0.2-7.9-0.6l7.3-8.3c0.1-0.1,0.3-0.1,0.4,0L82.1,86.8z" class="st8"/><path d="M111.6,40.9l-29.7,26c-0.1,0.1-0.3,0.1-0.5,0l-5.8-5.8c-0.1-0.1-0.1-0.3,0-0.5l26-29.7 c0.1-0.1,0.4-0.1,0.5,0l9.5,9.5C111.7,40.5,111.7,40.7,111.6,40.9z" class="st8"/><line x1="57.9" x2="57.1" y1="97.1" y2="98.1" class="st8"/><path d="M73.6,75.1l-26,29.7c-0.1,0.1-0.4,0.2-0.5,0l-9.5-9.5c-0.1-0.1-0.1-0.4,0-0.5l29.7-26 c0.1-0.1,0.3-0.1,0.5,0l5.8,5.8C73.7,74.8,73.7,75,73.6,75.1z" class="st8"/><path d="M73.6,61.1l-5.8,5.8c-0.1,0.1-0.3,0.1-0.5,0l-29.7-26c-0.1-0.1-0.1-0.4,0-0.5l9.5-9.5 c0.1-0.1,0.4-0.1,0.5,0l26,29.7C73.7,60.7,73.7,60.9,73.6,61.1z" class="st8"/><path d="M74.8,100.6c-6.3,0-12.9-1.2-16.8-3.4c0,0-0.1,0-0.1,0l-0.8,0.9v7.1c0,0.2,0.1,0.4,0.2,0.5 c2.1,2.2,8.4,4.5,17.6,4.5c8.1,0,13.9-1.8,16.6-3.7l-9.6-6.3C79.5,100.5,77.1,100.6,74.8,100.6z" class="st8"/><path d="M80,94.1l5.4-3.6l-1.7-1.9c-2.6,0.6-5.7,0.9-8.9,0.9c-3.4,0-6.6-0.3-9.3-1l-6,6.9c3.1,1.6,8.4,2.9,15.3,2.9 c1.5,0,2.9-0.1,4.3-0.2c-0.3-0.4-0.5-1-0.5-1.6C78.5,95.5,79.1,94.5,80,94.1z" class="st8"/><path d="M104.9,89l-23-20.2c-0.1-0.1-0.3-0.1-0.5,0l-5.8,5.8c-0.1,0.1-0.1,0.3,0,0.4l11.9,13.6l5-3.3 c0.2-0.1,0.4-0.1,0.6-0.1L104.9,89z" class="st8"/><circle cx="74.6" cy="67.8" r="3.3" class="st8"/></g></g></g></switch></svg>