<svg xmlns="http://www.w3.org/2000/svg" xmlns:xlink="http://www.w3.org/1999/xlink" id="Livello_1" x="0" y="0" version="1.1" viewBox="0 0 231.8 67.1" xml:space="preserve" style="enable-background:new 0 0 231.8 67.1"><style type="text/css">.st7{fill:#767c82}.st8{fill:#3b444d}</style><metadata><?xpacket begin="﻿" id="W5M0MpCehiHzreSzNTczkc9d"?><?xpacket end="w"?></metadata><switch><g><g><path d="M27.4,40.3c-0.1-0.6-0.1-1.1-0.2-1.6v-0.1c-0.1-0.5-0.2-1-0.4-1.5C25.4,32.2,22.2,29,16,24.4 c-5.2-3.8-6-5.9-6-10c0-3.9,0.8-6.5,3.8-6.5c3,0,3.7,2.5,3.7,6.6v2.9h9v-3.2C26.6,7.8,24.9,0,14,0C3.3,0,0.9,7.9,0.9,15.7 c0,8.8,3.4,12,9.8,17c2.1,1.7,3.7,3,4.8,4.3c0.5,0.5,0.8,1,1.2,1.5c0,0,0,0,0,0.1c0.3,0.5,0.6,1,0.8,1.5c0.7,1.6,0.9,3.5,0.9,6 c0,3.9-0.9,7.2-4.5,7.2c-3.5,0-4.8-2.4-4.8-6.9v-3.7H0v3.5c0,7.8,2.7,14.8,13.6,14.8c11.1,0,14-8,14-16.4 C27.6,43,27.6,41.6,27.4,40.3z" class="st8"/><path d="M59.1,55.4c1.7-2.7,2.5-6.4,2.5-11.1V16.7c0-11.4-5.3-16.6-14.3-16.6c-8.8,0-14.6,5.2-14.6,16.5v27.9 c0,11.1,4.3,16.6,14,16.6c1.9,0,3.7-0.2,5.3-0.6l8.5,6.7l5.4-6.4L59.1,55.4z M47.2,52.8c-3.3,0-5.1-2.3-5.1-7.2V15.8 c0-5,1.8-7.4,5.1-7.4c3.7,0,5.2,2.6,5.2,7.3v29.7C52.3,50.7,50.7,52.8,47.2,52.8z" class="st8"/><path d="M77.7,52V1h-9.2v59.2h20.8l1.4-8.2H77.7z" class="st8"/><path d="M101.2,39.2l-3.4,21h-4.4L103.4,1h6.3l10.3,59.2h-4.6l-3.5-21H101.2z M111.2,35.2 c-2.6-15.1-4.2-25.5-4.7-30.4h-0.2c-0.2,4.4-2.5,18.1-4.4,30.4H111.2z" class="st7"/><path d="M125.5,60.2V1h5.4c3.8,12.8,12.8,45.1,14,51.1h0.2c-0.3-8.4-0.4-16.8-0.4-26.4V1h4.2v59.2h-5.3 c-4-13.9-12.9-46.6-14.4-52.8h-0.1c0.4,7.1,0.7,17.6,0.7,28.3v24.6H125.5z" class="st7"/><path d="M178.8,43.7v1.8c0,8.1-1.5,15.4-11,15.4c-9.8,0-11.1-7.6-11.1-16V14.6c0-9.7,4-14.4,11.2-14.4 c9.1,0,10.7,6.9,10.7,14.3v2.1h-4.5v-2.1c0-5.2-0.6-10.3-6.3-10.3c-5.4,0-6.6,4.5-6.6,10.5V45c0,7.4,1.7,11.9,6.8,11.9 c5.5,0,6.3-5,6.3-11.4v-1.9H178.8z" class="st7"/><path d="M203.2,30.4h-13.5v25.8h15.1l-0.6,4h-18.8V1H204v4h-14.3v21.4h13.5V30.4z" class="st7"/><path d="M214.7,31.7v28.5h-4.3V1h8.8c8.8,0,12.5,4,12.5,13.2v3c0,7.3-2.2,11.3-6,12.6c4,1.2,5.6,4.3,5.6,12.1 c0,5.1-0.1,14.5,0.6,18.3h-4.3c-0.7-3.8-0.6-13.9-0.6-17.9c0-8-1.2-10.5-7.4-10.5H214.7z M214.7,27.9h5.1c6.2,0,7.4-4.2,7.4-10.5 v-3.1c0-6-1.8-9.5-8.3-9.5h-4.2V27.9z" class="st7"/></g></g></switch></svg>