<svg xmlns="http://www.w3.org/2000/svg" xmlns:xlink="http://www.w3.org/1999/xlink" id="Livello_1" x="0" y="0" version="1.1" viewBox="0 0 304 91.6" xml:space="preserve" style="enable-background:new 0 0 304 91.6"><style type="text/css">.st0{fill:#fff}.st1{fill:#d0d0d0}.st2{fill:#b2b2b2}.st3{fill:none}</style><metadata><?xpacket begin="﻿" id="W5M0MpCehiHzreSzNTczkc9d"?><?xpacket end="w"?></metadata><switch><g><g><g><path d="M164.6,66.3c0,0-11.8-0.6-17-0.8c-0.3,0-0.6,0-0.9,0c-2.5-0.1-6.1-0.3-10.3-0.4c-1-0.1-2.1-0.1-3.2-0.1 c-1.1,0-2.2-0.1-3.3-0.1c-11-0.4-22.5-0.9-22.5-0.9H70l-16.4,5.3c0,0-0.1,0-0.1,0l-10.2-6.7c-0.1-0.1-0.1-0.2,0-0.3l10.2-6.7 c0,0,0.1,0,0.1,0L70,60.7h37.5c0,0,29.7-0.9,42.5-1.9c1.5-0.1,16-1.2,16-1.2l-0.8,4.9L164.6,66.3z" class="st0"/><path d="M166.1,57.7l-0.8,4.9l-0.6,3.7c0,0-11.8-0.6-17-0.8c-0.3,0-0.6,0-0.9,0c-2.5-0.1-6.1-0.3-10.3-0.4 c-1-0.1-2.1-0.1-3.2-0.1c-1.1,0-2.2-0.1-3.3-0.1c-11-0.4-22.5-0.9-22.5-0.9H70l-16.4,5.3c0,0-0.1,0-0.1,0l-10.2-6.7 c-0.1-0.1-0.1-0.2,0-0.3l10.2-6.7c0,0,0.1,0,0.1,0L70,60.7h37.5c0,0,29.7-0.9,42.5-1.9C151.5,58.8,166.1,57.7,166.1,57.7z" class="st0"/><path d="M166.1,57.7l-0.8,4.9l-0.6,3.7c0,0-11.8-0.6-17-0.8c-0.3,0-0.6,0-0.9,0c-2.5-0.1-6.1-0.3-10.3-0.4 c-1-0.1-2.1-0.1-3.2-0.1c-1.1,0-2.2-0.1-3.3-0.1c-11-0.4-22.5-0.9-22.5-0.9H70l-16.4,5.3c0,0-0.1,0-0.1,0l-10.2-6.7 c-0.1-0.1-0.1-0.2,0-0.3l10.2-6.7c0,0,0.1,0,0.1,0L70,60.7h37.5c0,0,29.7-0.9,42.5-1.9C151.5,58.8,166.1,57.7,166.1,57.7z" class="st1"/><path d="M165.2,62.6l-0.6,3.7c0,0-11.8-0.6-17-0.8c-0.3,0-0.6,0-0.9-0.1c-2.5-0.1-6.1-0.3-10.3-0.4 c-1-0.1-2.1-0.1-3.2-0.1c-1.1,0-2.2-0.1-3.3-0.1c-11-0.4-22.5-0.9-22.5-0.9H70c1.1-0.9,2.4-1.3,3.8-1.3H165.2z" class="st2"/></g><path d="M19.4,74.1c-0.4-0.2-0.8,0.1-0.8,0.5l0,7c0,2.3,7.4,5.8,16.6,5.8s16.9-3.2,16.9-5.8l0-7 c0-0.5-0.5-0.8-0.8-0.5c-3.7,2.1-10,3.3-15.9,3.3C29.4,77.4,23.1,76.3,19.4,74.1z" class="st0"/><path d="M42.3,53c-2.1,0.3-4.4,0.5-6.8,0.5c-2.7,0-5.3-0.2-7.5-0.6L35,45c0.1-0.1,0.3-0.1,0.3,0L42.3,53z" class="st0"/><path d="M70.2,9.6L42,34.2c-0.1,0.1-0.3,0.1-0.4,0l-5.5-5.5c-0.1-0.1-0.1-0.3,0-0.4L60.7,0.1c0.1-0.1,0.3-0.1,0.5,0 l9,9C70.3,9.2,70.3,9.4,70.2,9.6z" class="st0"/><line x1="19.3" x2="18.6" y1="62.9" y2="63.7" class="st3"/><path d="M34.2,42L9.6,70.2c-0.1,0.1-0.3,0.2-0.5,0l-9-9c-0.1-0.1-0.1-0.3,0-0.5l28.1-24.7c0.1-0.1,0.3-0.1,0.4,0 l5.5,5.5C34.3,41.7,34.3,41.9,34.2,42z" class="st0"/><path d="M34.2,28.7l-5.5,5.5c-0.1,0.1-0.3,0.1-0.4,0L0.1,9.6C0,9.4,0,9.2,0.1,9.1l9-9C9.2,0,9.4,0,9.6,0.1l24.7,28.1 C34.3,28.4,34.3,28.6,34.2,28.7z" class="st0"/><path d="M35.3,66.2c-6,0-12.2-1.1-15.9-3.3c0,0-0.1,0-0.1,0l-0.8,0.9v6.8c0,0.2,0.1,0.3,0.2,0.5 c2,2.1,8,4.2,16.6,4.2c7.7,0,13.2-1.7,15.8-3.5l-9.1-6C39.8,66,37.6,66.2,35.3,66.2z" class="st0"/><path d="M40.3,59.9l5.1-3.4l-1.6-1.8c-2.5,0.5-5.4,0.8-8.5,0.8c-3.2,0-6.2-0.3-8.8-0.9l-5.7,6.5 c2.9,1.5,7.9,2.8,14.5,2.8c1.4,0,2.8-0.1,4.1-0.2c-0.3-0.4-0.5-0.9-0.5-1.5C38.9,61.3,39.5,60.4,40.3,59.9z" class="st0"/><path d="M63.8,55.2L42,36.1c-0.1-0.1-0.3-0.1-0.4,0l-5.5,5.5c-0.1,0.1-0.1,0.3,0,0.4l11.3,12.9l4.7-3.1 c0.2-0.1,0.4-0.1,0.5-0.1L63.8,55.2z" class="st0"/><circle cx="35.2" cy="35.1" r="3.1" class="st0"/><path d="M99.6,64.7c-0.1-0.6-0.1-1.1-0.2-1.6v-0.1c-0.1-0.5-0.2-1-0.4-1.5c-1.4-4.8-4.5-8.1-10.7-12.6 c-5.2-3.8-6-5.9-6-10c0-3.9,0.8-6.5,3.8-6.5c3,0,3.7,2.5,3.7,6.6v2.9h9v-3.2c0-6.4-1.7-14.2-12.6-14.2 c-10.7,0-13.1,7.9-13.1,15.7c0,8.8,3.4,12,9.8,17c2.1,1.7,3.7,3,4.8,4.3c0.5,0.5,0.8,1,1.2,1.5c0,0,0,0,0,0.1 c0.3,0.5,0.6,1,0.8,1.5c0.7,1.6,0.9,3.5,0.9,6c0,3.9-0.9,7.2-4.5,7.2c-3.5,0-4.8-2.4-4.8-6.9v-3.7h-9.1v3.5 c0,7.8,2.7,14.8,13.6,14.8c11.1,0,14-8,14-16.4C99.8,67.5,99.8,66.1,99.6,64.7z" class="st0"/><path d="M131.3,79.9c1.7-2.7,2.5-6.4,2.5-11.1V41.2c0-11.4-5.3-16.6-14.3-16.6c-8.8,0-14.6,5.2-14.6,16.5V69 c0,11.1,4.3,16.6,14,16.6c1.9,0,3.7-0.2,5.3-0.6l8.5,6.7l5.4-6.4L131.3,79.9z M119.4,77.3c-3.3,0-5.1-2.3-5.1-7.2V40.3 c0-5,1.8-7.4,5.1-7.4c3.7,0,5.2,2.6,5.2,7.3v29.7C124.5,75.1,122.9,77.3,119.4,77.3z" class="st0"/><path d="M149.9,76.5V25.4h-9.2v59.2h20.8l1.4-8.2H149.9z" class="st0"/><path d="M173.5,63.7l-3.4,21h-4.4l9.9-59.2h6.3l10.3,59.2h-4.6l-3.5-21H173.5z M183.4,59.7 c-2.6-15.1-4.2-25.5-4.7-30.4h-0.2c-0.2,4.4-2.5,18.1-4.4,30.4H183.4z" class="st0"/><path d="M197.7,84.7V25.4h5.4c3.8,12.8,12.8,45.1,14,51.1h0.2c-0.3-8.4-0.4-16.8-0.4-26.4V25.4h4.2v59.2h-5.3 c-4-13.9-12.9-46.6-14.4-52.8h-0.1c0.4,7.1,0.7,17.6,0.7,28.3v24.6H197.7z" class="st0"/><path d="M251,68.2V70c0,8.1-1.5,15.4-11,15.4c-9.8,0-11.1-7.6-11.1-16V39.1c0-9.7,4-14.4,11.2-14.4 c9.1,0,10.7,6.9,10.7,14.3v2.1h-4.5v-2.1c0-5.2-0.6-10.3-6.3-10.3c-5.4,0-6.6,4.5-6.6,10.5v30.4c0,7.4,1.7,11.9,6.8,11.9 c5.5,0,6.3-5,6.3-11.4v-1.9H251z" class="st0"/><path d="M275.5,54.9H262v25.8h15.1l-0.6,4h-18.8V25.4h18.6v4H262v21.4h13.5V54.9z" class="st0"/><path d="M286.9,56.2v28.5h-4.3V25.4h8.8c8.8,0,12.5,4,12.5,13.2v3c0,7.3-2.2,11.3-6,12.6c4,1.2,5.6,4.3,5.6,12.1 c0,5.1-0.1,14.5,0.6,18.3h-4.3c-0.7-3.8-0.6-13.9-0.6-17.9c0-8-1.2-10.5-7.4-10.5H286.9z M286.9,52.4h5.1c6.2,0,7.4-4.2,7.4-10.5 v-3.1c0-6-1.8-9.5-8.3-9.5h-4.2V52.4z" class="st0"/></g></g></switch></svg>